<?xml version="1.0" standalone="no"?>
<!DOCTYPE svg PUBLIC "-//W3C//DTD SVG 20010904//EN"
 "http://www.w3.org/TR/2001/REC-SVG-20010904/DTD/svg10.dtd">
<svg version="1.0" xmlns="http://www.w3.org/2000/svg"
 width="450.000000pt" height="450.000000pt" viewBox="0 0 450.000000 450.000000"
 preserveAspectRatio="xMidYMid meet">
<metadata>
Created by potrace 1.14, written by Peter Selinger 2001-2017
</metadata>
<g transform="translate(0.000000,450.000000) scale(0.100000,-0.100000)"
fill="#000000" stroke="none">
<path d="M1535 3912 c-3 -3 -326 -89 -365 -97 -8 -2 -139 -35 -290 -75 -151
-39 -282 -73 -290 -75 -21 -4 -158 -42 -198 -54 -18 -5 -35 -10 -37 -10 -3 -1
-6 -1 -7 -2 -2 0 -12 -2 -23 -4 -59 -10 -160 -43 -158 -52 2 -9 122 -198 290
-457 36 -54 67 -105 70 -112 5 -14 23 -18 -277 59 -118 31 -217 54 -220 51 -5
-6 2 -11 90 -60 136 -77 585 -336 589 -339 2 -2 5 -37 6 -77 5 -116 15 -316
20 -403 3 -44 7 -132 10 -195 3 -63 8 -153 10 -200 3 -47 7 -125 10 -175 11
-209 21 -384 24 -411 0 -6 65 -34 144 -63 78 -29 151 -56 162 -61 11 -5 153
-58 315 -119 162 -60 466 -173 674 -251 349 -130 382 -140 405 -128 30 15 506
316 569 359 23 16 45 29 47 29 3 0 27 15 53 33 26 18 54 36 62 40 8 4 96 59
195 122 306 195 295 187 296 233 0 20 2 62 4 92 1 30 6 109 9 175 3 66 8 163
11 215 3 52 8 147 10 210 8 168 15 309 29 560 2 36 5 78 5 93 1 34 -13 20 286
282 88 77 162 142 165 145 3 3 36 32 74 65 113 98 172 155 160 155 -11 0 -101
-36 -199 -80 -22 -10 -69 -30 -105 -45 -36 -14 -78 -32 -95 -40 -16 -8 -31
-12 -33 -10 -2 2 11 28 30 57 18 29 39 62 45 73 7 11 33 54 58 96 25 42 45 80
45 86 0 5 -35 15 -77 21 -87 14 -92 15 -218 37 -49 9 -103 18 -118 20 -16 2
-79 13 -140 24 -62 11 -128 22 -147 25 -42 7 -82 14 -130 22 -19 4 -44 8 -55
9 -11 2 -101 17 -200 35 -99 17 -193 33 -210 36 -16 3 -37 7 -45 9 -8 2 -35 7
-60 10 -25 4 -91 14 -148 24 l-102 18 -128 -186 c-70 -102 -135 -197 -144
-211 -10 -14 -49 -70 -88 -125 -39 -55 -78 -116 -86 -135 l-16 -35 -12 27 c-6
15 -119 189 -251 387 -225 338 -242 359 -268 358 -16 -1 -30 -3 -32 -5z"/>
</g>
</svg>
